PathFileType	4	(X/Y/Z)	C:\Users\Basilio\Documents\Thesis Gigler\squatting_fais\c3dfiles\019\SLS_front_pre4\markers_experimental.trc
DataRate	CameraRate	NumFrames	NumMarkers	Units	OrigDataRate	OrigDataStartFrame	OrigNumFrames
200.000000	200.000000	4	59	mm	200.000000	585	1561
Frame#	Time	LBHD			RBHD			C7			T10			CLAV			LSHO			LUUPA			LMUPA			LDUPA			LLEP			LMEP			LRAD			LUL			LRFIN			RSHO			RUPA1			RMUPA			RDUPA			RLEP			RMEP			RRAD			RUL			RUFIN			LASI			RASI			USACR			LSACR			RSACR			LTHI1			LTHI2			LTHI3			LTHI4			LLFC			LTIB1			LTIB2			LTIB3			LTIB4			LLMAL			LMMAL			LHEE			LMT1			LMT2			LMT5			RTHI			RTHI2			RTHI3			RTHI4			RLFC			RTIB1			RTIB2			RTIB3			RTIB4			RLMAL			RMMAL			RHEE			RMT1			RMT2			RMT5			FHD			
		X1	Y1	Z1	X2	Y2	Z2	X3	Y3	Z3	X4	Y4	Z4	X5	Y5	Z5	X6	Y6	Z6	X7	Y7	Z7	X8	Y8	Z8	X9	Y9	Z9	X10	Y10	Z10	X11	Y11	Z11	X12	Y12	Z12	X13	Y13	Z13	X14	Y14	Z14	X15	Y15	Z15	X16	Y16	Z16	X17	Y17	Z17	X18	Y18	Z18	X19	Y19	Z19	X20	Y20	Z20	X21	Y21	Z21	X22	Y22	Z22	X23	Y23	Z23	X24	Y24	Z24	X25	Y25	Z25	X26	Y26	Z26	X27	Y27	Z27	X28	Y28	Z28	X29	Y29	Z29	X30	Y30	Z30	X31	Y31	Z31	X32	Y32	Z32	X33	Y33	Z33	X34	Y34	Z34	X35	Y35	Z35	X36	Y36	Z36	X37	Y37	Z37	X38	Y38	Z38	X39	Y39	Z39	X40	Y40	Z40	X41	Y41	Z41	X42	Y42	Z42	X43	Y43	Z43	X44	Y44	Z44	X45	Y45	Z45	X46	Y46	Z46	X47	Y47	Z47	X48	Y48	Z48	X49	Y49	Z49	X50	Y50	Z50	X51	Y51	Z51	X52	Y52	Z52	X53	Y53	Z53	X54	Y54	Z54	X55	Y55	Z55	X56	Y56	Z56	X57	Y57	Z57	X58	Y58	Z58	X59	Y59	Z59	

586	2.925	-384.4444580078126	1628.568481445313	-824.2945556640627	-391.9719543457032	1624.92822265625	-684.7551879882814	-412.9311523437501	1464.977294921875	-732.2338867187501	-487.0049743652345	1184.298950195313	-713.9042968750001	-279.9916381835938	1409.623291015625	-737.4149169921876	-337.1331787109376	1459.444946289063	-868.4458007812502	-216.1359863281251	1433.643310546875	-923.893981933594	-191.0000762939453	1424.785522460938	-882.966491699219	-149.9117279052735	1431.263427734375	-926.4509887695315	-79.4972381591797	1405.42529296875	-961.4121093750002	-82.26804351806642	1346.414184570313	-954.045593261719	174.2409210205078	1392.697509765625	-889.697937011719	166.2561492919922	1401.570556640625	-957.5178833007815	244.4305877685547	1405.236694335938	-889.4570312500002	-321.9694824218751	1468.820678710938	-615.6054077148439	-206.3675231933594	1407.594604492188	-508.9631347656251	-179.0074615478516	1431.153076171875	-543.7816162109376	-138.7713165283203	1403.866821289063	-508.5596313476564	-61.39047241210939	1392.672485351563	-516.5952148437501	-72.04058837890626	1336.149780273438	-522.9545898437501	175.5342864990235	1388.60009765625	-604.4960327148439	188.5058898925782	1401.90283203125	-540.4019165039064	263.4104309082032	1398.261596679688	-608.1312866210939	-363.3256835937501	971.1385498046877	-831.8325195312502	-345.7354125976563	959.923522949219	-624.5347290039064	-507.2275390625001	1046.609375	-714.7791748046876	-517.8073120117189	1014.775085449219	-741.3927612304689	-511.8402404785157	1015.716430664063	-683.9688720703126	-307.5835571289063	757.3105468750001	-909.1068115234377	-230.0777587890626	723.2011718750001	-899.6718750000002	-199.936508178711	755.0004882812501	-881.1228637695315	-215.6786804199219	664.0913085937501	-893.2014770507815	-162.8332672119141	583.7089233398439	-878.9604492187502	-61.28892135620119	477.0946655273439	-845.255065917969	-93.26458740234376	414.8505859375001	-899.278503417969	-59.08481979370119	426.3142089843751	-875.6757812500002	-29.71405410766602	352.5025024414063	-840.4556274414065	-38.65821075439454	207.6437225341797	-867.4407348632815	-28.94224739074708	219.6126556396485	-787.8608398437502	-89.99102020263673	158.2018432617188	-815.0886230468752	115.1893310546875	178.8948974609375	-789.167419433594	122.5871200561524	177.7061157226563	-828.213562011719	86.25096130371095	142.891830444336	-879.8231201171877	-346.5219726562501	763.7258911132814	-561.3928833007814	-291.1982421875001	732.2014160156251	-577.3051757812501	-270.9271545410157	741.2138671875001	-600.9521484375001	-286.6791381835938	647.8862304687501	-582.0610351562501	-278.4933776855469	491.4359741210939	-631.0021362304689	-265.3877258300782	319.0283203125001	-714.4588012695314	-324.7929687500001	241.9893493652344	-662.1734619140626	-295.0462646484376	238.0357360839844	-699.1764526367189	-317.6228027343751	205.0312652587891	-742.8099975585939	-387.9403686523439	127.7646026611328	-700.7259521484376	-374.6007690429688	134.9776763916016	-776.4195556640627	-455.4197387695314	106.0965805053711	-751.2644653320314	-257.9745483398438	53.82137298583986	-776.4360351562502	-248.7827301025391	56.31877517700197	-733.6385498046876	-291.7209167480469	52.71386337280275	-677.0510253906251	-262.5668640136719	1670.033203125	-678.2997436523439	
587	2.93	-384.289520263672	1628.341796875	-824.0593261718752	-391.7922668457032	1624.739990234375	-684.6004028320314	-413.0059204101564	1464.818603515625	-731.9581909179689	-487.301483154297	1184.195922851563	-713.7290039062501	-280.0285644531251	1409.322143554688	-737.2721557617189	-337.4249572753907	1459.292846679688	-868.2464599609377	-216.3333740234376	1433.589599609375	-923.7449340820315	-184.7811584472657	1425.787963867188	-880.236755371094	-150.2184143066407	1431.217651367188	-926.3637695312502	-79.57284545898439	1405.430419921875	-961.2386474609377	-82.42444610595705	1346.349365234375	-953.974060058594	174.0825500488282	1392.785034179688	-889.560485839844	166.0547637939453	1401.67724609375	-957.4078369140627	244.2706298828126	1405.374145507813	-889.2875976562502	-321.9437561035157	1468.586547851563	-615.4057006835939	-206.250717163086	1407.51123046875	-508.9517211914064	-178.7827911376953	1431.408203125	-543.3949584960939	-138.7341918945313	1403.789428710938	-508.5278625488282	-61.38675689697267	1392.4326171875	-516.6561279296876	-71.8911590576172	1336.110595703125	-522.8305664062501	175.5136871337891	1388.578491210938	-604.9662475585939	188.6179962158203	1401.962036132813	-540.7276000976564	263.4223937988282	1398.4541015625	-608.3592529296876	-363.7362060546876	971.0057373046877	-831.7561035156252	-346.1529846191407	959.7520751953127	-624.4346313476564	-507.5869140625001	1046.474975585938	-714.5969848632814	-518.2454223632814	1014.653381347656	-741.2383422851564	-512.3469238281251	1015.595642089844	-683.7814331054689	-307.7961120605469	757.3314208984376	-908.9923095703127	-230.2786254882813	723.3870849609376	-899.6005859375002	-200.1370849609376	755.2039184570314	-881.0659179687502	-215.6692657470704	664.2857666015626	-893.138610839844	-162.6634063720703	584.0120849609376	-878.9837036132815	-60.96938705444337	477.5380249023439	-845.2189941406252	-93.00058746337892	415.3291015625001	-899.1993408203127	-59.06114959716798	426.7524414062501	-875.592956542969	-29.41361808776856	352.9650268554688	-840.3547363281252	-38.61926651000977	208.1731872558594	-867.6077880859377	-28.71881294250489	220.0209503173829	-787.8767089843752	-89.73896789550783	158.6691436767578	-815.0555419921877	115.4829940795899	179.389404296875	-789.080993652344	122.8045272827149	178.1271362304688	-828.0916748046877	86.45117187500001	143.3804321289063	-879.7769775390627	-346.8243408203126	763.6377563476564	-561.1954345703126	-291.5222778320313	732.0888671875001	-577.1372680664064	-271.1883850097657	741.2059936523439	-600.7390747070314	-286.7630310058594	647.8402099609376	-581.8245849609376	-278.5320129394532	491.4008789062501	-630.7582397460939	-265.3560180664063	319.1148681640626	-714.2515258789064	-324.7438964843751	241.9581909179688	-662.0353393554689	-295.0053405761719	237.9712829589844	-698.9343872070314	-317.5798339843751	205.0594482421876	-742.6704101562501	-387.9060668945314	127.7688369750977	-700.6619873046876	-374.5516967773438	135.0289154052735	-776.3096313476565	-455.4584960937501	106.0808563232422	-751.2481079101564	-257.9664306640626	53.82967758178712	-776.4297485351565	-248.7494506835938	56.33897399902345	-733.5885009765626	-291.7416076660157	52.68038558959962	-677.0261840820314	-262.3085937500001	1669.685791015625	-678.2240600585939	
588	2.935	-384.2112426757814	1628.099731445313	-823.905456542969	-391.5343322753907	1624.601440429688	-684.4183349609376	-413.1217346191407	1464.599243164063	-731.7592773437501	-487.5002441406251	1184.078735351563	-713.5556640625001	-280.1079406738282	1409.045288085938	-737.1230468750001	-337.4085693359376	1459.094116210938	-867.940368652344	-216.5909881591797	1433.668579101563	-923.535339355469	-191.3029327392578	1424.39013671875	-882.8249511718752	-150.170639038086	1431.011108398438	-925.9226074218752	-79.77471160888673	1405.369262695313	-961.1369628906252	-82.56945800781251	1346.277587890625	-953.8780517578127	173.9163665771485	1392.967407226563	-889.484802246094	165.8025360107422	1401.800048828125	-957.2893676757815	243.990463256836	1405.528198242188	-889.1277465820315	-321.8833618164063	1468.55712890625	-615.3687744140626	-206.2340087890626	1407.38916015625	-508.8855590820314	-178.7498779296875	1431.2724609375	-543.3838500976564	-138.4940490722657	1403.653442382813	-508.473114013672	-61.26149749755861	1392.2578125	-516.6641235351564	-71.70816040039064	1335.983520507813	-522.8630981445314	175.5800018310547	1388.57080078125	-605.2968750000001	188.6647644042969	1401.861572265625	-541.0342407226564	263.6640625000001	1398.519897460938	-608.9275512695314	-364.1694335937501	970.888854980469	-831.6992187500002	-346.5019226074219	959.5712890625002	-624.4095458984376	-507.9459228515626	1046.337280273438	-714.4901123046876	-518.4254150390626	1014.446655273438	-741.1516723632814	-512.7863159179689	1015.44140625	-683.6643676757814	-307.9639892578126	757.3704223632814	-908.9093017578127	-230.4211730957032	723.6401367187501	-899.5693359375002	-200.3027954101563	755.4512329101564	-881.0447387695315	-215.6780548095704	664.4562988281251	-893.1099243164065	-162.5678863525391	584.2508544921876	-878.9020996093752	-60.78495407104494	477.931854248047	-845.202087402344	-92.73484039306642	415.6565856933595	-899.164733886719	-58.66424560546876	427.0462341308595	-875.6245727539065	-29.10452270507813	353.2453613281251	-840.3191528320315	-38.54870223999024	208.6409149169922	-867.8677978515627	-28.43237304687501	220.4123687744141	-787.8723754882815	-89.45703887939455	159.0797882080078	-815.0794677734377	115.8481369018555	179.7609558105469	-789.0360107421877	123.1782836914063	178.6247100830078	-828.020446777344	86.54528045654298	143.5530853271485	-879.2141723632815	-347.1763610839844	763.4636230468751	-561.1134643554689	-291.7947692871094	732.0385742187501	-576.8692016601564	-271.4793090820313	741.1489257812501	-600.5208740234376	-286.9557800292969	647.8032226562501	-581.6112670898439	-278.3649291992188	491.3457336425782	-630.5783081054689	-265.2671813964844	319.1098632812501	-713.9637451171876	-324.6721191406251	241.8978729248047	-661.8640747070314	-294.9947814941407	237.9170074462891	-698.7329711914064	-317.5267028808594	205.1037750244141	-742.5607910156251	-387.8491821289064	127.761947631836	-700.5652465820314	-374.4444885253907	135.1112823486328	-776.1724853515627	-455.5174865722657	106.1311950683594	-751.1989746093751	-257.9757385253907	53.82707977294923	-776.3606567382815	-248.7594299316407	56.27714920043947	-733.5332031250001	-291.6364135742188	52.6248016357422	-676.9832763671876	-262.0714721679688	1669.50390625	-678.3444213867189	
589	2.94	-383.8996276855469	1627.7783203125	-823.817077636719	-391.3757629394532	1624.381958007813	-684.2468261718751	-413.0310668945314	1464.41650390625	-731.5158691406251	-487.7402954101564	1183.900390625	-713.3860473632814	-280.1138610839844	1408.777587890625	-736.9835815429689	-337.7340087890626	1458.916625976563	-867.8154296875002	-216.5778503417969	1433.384521484375	-923.3094482421877	-185.2101135253907	1425.531494140625	-879.8778076171877	-150.5547485351563	1431.014892578125	-925.9131469726565	-79.97217559814455	1405.3515625	-960.9943847656252	-82.65581512451173	1346.258422851563	-953.7294921875002	173.6781311035157	1393.024780273438	-889.313903808594	165.9838104248047	1401.860717773438	-957.0010986328127	243.8549041748047	1405.657470703125	-888.8771972656252	-321.7545166015626	1468.270141601563	-615.1348876953126	-206.1300811767579	1407.225830078125	-508.890350341797	-178.6745758056641	1431.0810546875	-543.2408447265626	-138.4343719482422	1403.455932617188	-508.4378356933595	-61.2007293701172	1392.111450195313	-516.8260498046876	-71.57667541503908	1335.879516601563	-523.0172119140626	175.6167755126953	1388.575073242188	-605.5419311523439	188.7897033691407	1401.788818359375	-541.2278442382814	263.8302917480469	1398.650390625	-609.4275512695314	-364.6224670410157	970.690124511719	-831.5957641601565	-346.9422302246094	959.383239746094	-624.3559570312501	-508.3692321777345	1046.135375976563	-714.3378295898439	-519.3962402343751	1014.554382324219	-740.9481811523439	-513.3953247070314	1015.30908203125	-683.5358276367189	-308.1387329101563	757.4191284179689	-908.8953857421877	-230.5022583007813	723.7957763671876	-899.4978637695315	-200.5422668457032	755.6903076171876	-881.016052246094	-215.6785888671876	664.6594848632814	-893.0681762695315	-162.5567321777344	584.5433349609376	-878.8905029296877	-60.52859115600587	478.321502685547	-845.095886230469	-92.59727478027345	415.9981689453126	-899.2187500000002	-58.4722137451172	427.3611145019532	-875.5444946289065	-28.66905021667481	353.6034851074219	-840.2685546875002	-37.95438766479493	209.0707702636719	-867.5832519531252	-28.02646064758301	220.7516326904297	-787.8687744140627	-89.17280578613283	159.5044403076172	-815.0289306640627	116.2103118896485	180.3128356933594	-788.9668579101565	123.6022872924805	179.1190643310547	-827.9697875976565	87.07881164550783	143.8494415283203	-879.1440429687502	-347.4823303222657	763.3164672851564	-560.9236450195314	-292.0008850097657	731.8521728515626	-576.5141601562501	-271.7557983398438	741.0980834960939	-600.2501831054689	-287.1881103515626	647.7532958984376	-581.2910156250001	-278.3573608398438	491.3111572265626	-630.3511352539064	-265.1292724609376	319.0039062500001	-713.7188720703126	-324.5888366699219	241.8832092285157	-661.6689453125001	-294.9220886230469	237.9001159667969	-698.5661621093751	-317.3783264160157	205.0912780761719	-742.3641357421876	-387.8180236816407	127.8171005249024	-700.4862670898439	-374.3228149414063	135.0820770263672	-776.055114746094	-455.5062866210939	106.1693725585938	-751.1801147460939	-258.0043334960938	53.86981582641603	-776.3848266601565	-248.7417602539063	56.15159606933595	-733.3251953125001	-291.6727600097657	52.57697677612306	-676.9019165039064	-261.7784729003907	1669.115600585938	-678.0609741210939	
